<svg xmlns="http://www.w3.org/2000/svg" fill="none" viewBox="0 0 278 286"><path fill="#55B443" fill-opacity=".15" d="M277 65H57v220h17.62V81.917L277 81.5V65z"/><path stroke="#55B443" d="M74.62 285V81.917L277 81.5V65H57v220h17.655"/><path stroke="#8A98A3" d="M9 65.5h48M9 284.5h48"/><path fill="#8A98A3" d="M21.5 65l-2.887 5h5.774L21.5 65zm0 219l2.887-5h-5.774l2.887 5zM21 69.5v210h1v-210h-1z"/><path stroke="#8A98A3" d="M277.5 17v48M57.5 17v48"/><path fill="#8A98A3" d="M277.5 29.5l-5-2.887v5.774l5-2.887zM57 29.5l5 2.887v-5.774L57 29.5zm216-.5H61.5v1H273v-1zM172.892 5.326h2.64c1.496 0 2.618.308 3.366.924.88.675 1.32 1.687 1.32 3.036 0 1.247-.484 2.207-1.452 2.882.939.25 1.635.726 2.09 1.43.469.704.704 1.46.704 2.266 0 .66-.147 1.269-.44 1.826-.279.557-.631 1.005-1.056 1.342-.792.645-1.965.968-3.52.968h-3.652V5.326zm1.628 1.54v4.906h1.232c.22 0 .433-.007.638-.022.205-.03.447-.088.726-.176a2.58 2.58 0 00.748-.396c.22-.161.403-.403.55-.726.147-.323.22-.697.22-1.122 0-.455-.088-.843-.264-1.166-.176-.337-.374-.587-.594-.748a2.477 2.477 0 00-.792-.374 4.194 4.194 0 00-.704-.154 5.342 5.342 0 00-.484-.022h-1.276zm0 6.358v5.236h1.87c1.188 0 2.046-.205 2.574-.616.645-.455.968-1.13.968-2.024 0-.968-.418-1.687-1.254-2.156-.543-.293-1.371-.44-2.486-.44h-1.672zM11.704 191l-1.716-4.136H3.74L1.98 191H.176l6.754-15.378L13.508 191h-1.804zm-7.326-5.676H9.35l-2.464-5.874-2.508 5.874z"/></svg>