<svg xmlns="http://www.w3.org/2000/svg" fill="none" viewBox="0 0 335 351"><path fill="#55B443" fill-opacity=".15" stroke="#55B443" d="M277 65H57v220h69.655v-17.275H74.62V81.917H260.28v185.808h-52.936V285H277V65z"/><path stroke="#8A98A3" d="M9 65.5h48M9 284.5h48"/><path fill="#8A98A3" d="M21.5 65l-2.887 5h5.774L21.5 65zm0 219l2.887-5h-5.774l2.887 5zM21 69.5v210h1v-210h-1z"/><path stroke="#8A98A3" d="M277 65.5h48M277 284.5h48"/><path fill="#8A98A3" d="M313 65l-2.887 5h5.774L313 65zm0 219l2.887-5h-5.774l2.887 5zm-.5-214.5v210h1v-210h-1z"/><path stroke="#8A98A3" d="M277.5 17v48M57.5 17v48"/><path fill="#8A98A3" d="M277.5 29.5l-5-2.887v5.774l5-2.887zM57 29.5l5 2.887v-5.774L57 29.5zm216-.5H61.5v1H273v-1zM184.112 6.536V8.56c-.601-.601-1.239-1.056-1.914-1.364a6.045 6.045 0 00-2.53-.572c-1.687 0-3.095.594-4.224 1.782-1.115 1.173-1.672 2.618-1.672 4.334 0 1.848.609 3.307 1.826 4.378 1.232 1.07 2.596 1.606 4.092 1.606.983 0 1.892-.227 2.728-.682a6.322 6.322 0 001.694-1.232v2.024c-1.349.953-2.823 1.43-4.422 1.43-2.171 0-3.982-.726-5.434-2.178-1.437-1.452-2.156-3.241-2.156-5.368 0-2.2.726-4.019 2.178-5.456 1.467-1.452 3.3-2.178 5.5-2.178 1.613 0 3.058.484 4.334 1.452z"/><path stroke="#8A98A3" d="M56.5 333v-48M126.5 333v-48"/><path fill="#8A98A3" d="M56 320.5l5 2.887v-5.774l-5 2.887zm71 0l-5-2.887v5.774l5-2.887zm-66.5.5h62v-1h-62v1zM99.704 343l-1.716-4.136H91.74L89.98 343h-1.804l6.754-15.378L101.508 343h-1.804zm-7.326-5.676h4.972l-2.464-5.874-2.508 5.874z"/><path stroke="#8A98A3" d="M207.5 333v-48M276.5 333v-48"/><path fill="#8A98A3" d="M207 320.5l5 2.887v-5.774l-5 2.887zm70 0l-5-2.887v5.774l5-2.887zm-65.5.5h61v-1h-61v1zM248.504 328.326v1.54h-5.984v4.356h5.808v1.54h-5.808v5.698h5.984V343h-7.612v-14.674h7.612zM322.892 191v-14.674h2.992c2.259 0 4.063.572 5.412 1.716 1.672 1.393 2.508 3.271 2.508 5.632 0 2.332-.858 4.209-2.574 5.632a6.938 6.938 0 01-2.244 1.298c-.807.264-1.848.396-3.124.396h-2.97zm1.628-13.134v11.594h1.43c1.745 0 3.146-.44 4.202-1.32 1.32-1.115 1.98-2.603 1.98-4.466 0-1.745-.565-3.146-1.694-4.202-1.129-1.071-2.625-1.606-4.488-1.606h-1.43zM1.892 176.326h2.64c1.496 0 2.618.308 3.366.924.88.675 1.32 1.687 1.32 3.036 0 1.247-.484 2.207-1.452 2.882.939.249 1.635.726 2.09 1.43a4.01 4.01 0 01.704 2.266 3.86 3.86 0 01-.44 1.826c-.279.557-.63 1.005-1.056 1.342-.792.645-1.965.968-3.52.968H1.892v-14.674zm1.628 1.54v4.906h1.232c.22 0 .433-.007.638-.022.205-.029.447-.088.726-.176.293-.103.543-.235.748-.396.22-.161.403-.403.55-.726a2.69 2.69 0 00.22-1.122c0-.455-.088-.843-.264-1.166-.176-.337-.374-.587-.594-.748a2.484 2.484 0 00-.792-.374 4.22 4.22 0 00-.704-.154 5.225 5.225 0 00-.484-.022H3.52zm0 6.358v5.236h1.87c1.188 0 2.046-.205 2.574-.616.645-.455.968-1.129.968-2.024 0-.968-.418-1.687-1.254-2.156-.543-.293-1.371-.44-2.486-.44H3.52z"/></svg>