<svg xmlns="http://www.w3.org/2000/svg" fill="none" viewBox="0 0 336 286"><path fill="#55B443" fill-opacity=".15" d="M277 65H57v220h17.62V81.917H260.28V285H277V65z"/><path stroke="#55B443" d="M74.62 285V81.917H260.28V285H277V65H57v220h17.655"/><path stroke="#8A98A3" d="M9 65.5h48M9 284.5h48"/><path fill="#8A98A3" d="M21.5 65l-2.887 5h5.774L21.5 65zm0 219l2.887-5h-5.774l2.887 5zM21 69.5v210h1v-210h-1z"/><path stroke="#8A98A3" d="M277 65.5h48M277 284.5h48"/><path fill="#8A98A3" d="M313 65l-2.887 5h5.774L313 65zm0 219l2.887-5h-5.774l2.887 5zm-.5-214.5v210h1v-210h-1z"/><path stroke="#8A98A3" d="M277.5 17v48M57.5 17v48"/><path fill="#8A98A3" d="M277.5 29.5l-5-2.887v5.774l5-2.887zM57 29.5l5 2.887v-5.774L57 29.5zm216-.5H61.5v1H273v-1zM172.892 5.326h2.64c1.496 0 2.618.308 3.366.924.88.675 1.32 1.687 1.32 3.036 0 1.247-.484 2.207-1.452 2.882.939.25 1.635.726 2.09 1.43.469.704.704 1.46.704 2.266 0 .66-.147 1.269-.44 1.826-.279.557-.631 1.005-1.056 1.342-.792.645-1.965.968-3.52.968h-3.652V5.326zm1.628 1.54v4.906h1.232c.22 0 .433-.007.638-.022.205-.03.447-.088.726-.176a2.58 2.58 0 00.748-.396c.22-.161.403-.403.55-.726.147-.323.22-.697.22-1.122 0-.455-.088-.843-.264-1.166-.176-.337-.374-.587-.594-.748a2.477 2.477 0 00-.792-.374 4.194 4.194 0 00-.704-.154 5.342 5.342 0 00-.484-.022h-1.276zm0 6.358v5.236h1.87c1.188 0 2.046-.205 2.574-.616.645-.455.968-1.13.968-2.024 0-.968-.418-1.687-1.254-2.156-.543-.293-1.371-.44-2.486-.44h-1.672zM334.112 177.536v2.024c-.601-.601-1.239-1.056-1.914-1.364a6.05 6.05 0 00-2.53-.572c-1.687 0-3.095.594-4.224 1.782-1.115 1.173-1.672 2.618-1.672 4.334 0 1.848.609 3.307 1.826 4.378 1.232 1.071 2.596 1.606 4.092 1.606.983 0 1.892-.227 2.728-.682a6.316 6.316 0 001.694-1.232v2.024c-1.349.953-2.823 1.43-4.422 1.43-2.171 0-3.982-.726-5.434-2.178-1.437-1.452-2.156-3.241-2.156-5.368 0-2.2.726-4.019 2.178-5.456 1.467-1.452 3.3-2.178 5.5-2.178 1.613 0 3.058.484 4.334 1.452zM11.704 191l-1.716-4.136H3.74L1.98 191H.176l6.754-15.378L13.508 191h-1.804zm-7.326-5.676H9.35l-2.464-5.874-2.508 5.874z"/></svg>