<svg xmlns="http://www.w3.org/2000/svg" fill="none" viewBox="0 0 636 384"><path fill="#E3E3E3" d="M85.78 375.639c-6.997-1.636-9.537-3.666-6.207-6.035 23.361-16.638 128.149-16.864 178.935-17.202 63.933-.395 130.406-1.297 187.963 2.312 24.095 1.523 78.662 2.651 87.972 8.178 24.49 14.495-63.143 20.304-177.919 20.135-46.949-.113-230.906 2.087-270.744-7.388zM122.572 240.956v-32.938H33.64c-11.23 0-19.637-2.538-25.223-7.614C2.83 195.328.009 188.447.009 179.705c0-2.256.395-4.512 1.241-6.824.847-2.313 2.088-4.738 3.725-7.276 1.636-2.538 3.385-4.963 5.135-7.332 1.749-2.369 3.95-5.245 6.545-8.685l93.897-125.547c6.151-8.29 11.173-14.269 15.123-17.991 3.95-3.723 8.69-5.584 14.277-5.584 17.944 0 26.916 10.265 26.916 30.794v137.052h7.618c9.085 0 16.364 1.241 21.894 3.723 5.474 2.481 8.239 7.896 8.239 16.299 0 6.825-2.257 11.844-6.715 14.946-4.514 3.102-11.229 4.682-20.202 4.682h-10.834v32.937c0 9.081-2.031 15.849-6.038 20.304-4.006 4.399-9.367 6.655-16.138 6.655-6.602 0-11.963-2.256-16.026-6.824-4.063-4.512-6.094-11.224-6.094-20.078zm-76.179-72.587h76.179V65.439l-76.179 102.93zM409.624 136.108c0 19.345-1.185 36.04-3.555 49.97-2.37 13.931-6.715 26.565-13.092 37.901-8.013 13.931-18.452 24.703-31.205 32.205-12.753 7.557-26.916 11.336-42.547 11.336-17.944 0-34.027-5.076-48.303-15.228-14.22-10.152-24.941-24.196-32.164-42.131-3.668-9.813-6.377-20.642-8.07-32.486-1.692-11.844-2.595-24.703-2.595-38.521 0-17.823.959-33.897 2.821-48.166 1.862-14.27 4.853-26.564 8.859-36.83 6.941-16.976 17.098-29.948 30.415-38.859 13.318-8.911 29.174-13.367 47.57-13.367 12.188 0 23.192 1.974 33.123 5.922 9.932 3.948 18.622 9.758 26.127 17.372 7.505 7.614 13.825 17.032 19.073 28.256 9.085 19.402 13.543 46.981 13.543 82.626zm-48.529-3.497c0-21.601-1.298-39.31-3.894-53.016-2.595-13.761-6.997-24.139-13.091-31.189-6.151-7.05-14.671-10.547-25.506-10.547-15.574 0-26.408 7.84-32.503 23.575-6.094 15.68-9.141 39.932-9.141 72.587 0 22.222 1.298 40.383 3.894 54.539 2.595 14.156 6.94 24.872 13.091 32.148 6.151 7.276 14.446 10.885 24.998 10.885 10.891 0 19.355-3.779 25.506-11.336 6.15-7.558 10.439-18.33 12.922-32.43 2.483-14.044 3.724-32.43 3.724-55.216zM553.856 240.956v-32.938h-88.932c-11.229 0-19.637-2.538-25.223-7.614-5.587-5.076-8.408-11.957-8.408-20.699 0-2.256.395-4.512 1.241-6.824.847-2.313 2.088-4.738 3.725-7.276 1.636-2.538 3.385-4.963 5.135-7.332 1.749-2.369 3.95-5.245 6.545-8.685l93.898-125.547c6.15-8.29 11.172-14.269 15.122-17.991 3.95-3.723 8.69-5.584 14.277-5.584 17.944 0 26.916 10.265 26.916 30.794v137.052h7.618c9.085 0 16.364 1.241 21.894 3.723 5.474 2.481 8.239 7.896 8.239 16.299 0 6.825-2.257 11.844-6.715 14.946-4.514 3.102-11.229 4.682-20.202 4.682h-10.834v32.937c0 9.081-2.031 15.849-6.038 20.304-4.006 4.399-9.367 6.655-16.138 6.655-6.602 0-11.963-2.256-16.026-6.824-4.063-4.512-6.094-11.224-6.094-20.078zm-76.179-72.587h76.179V65.439l-76.179 102.93z"/><path fill="#BBDFF5" d="M165.569 306.21c4.571 5.697 6.264 12.578 4.797 21.15-1.355 8.235-4.91 16.695-7.618 25.155-2.088 6.429 11.568 4.286 13.261-1.128 2.877-9.193 6.489-18.33 7.9-27.298 1.41-9.08-.565-16.976-5.474-22.955-1.693-2.086-5.135-1.917-8.126-.676-1.749.62-6.433 3.666-4.74 5.752z"/><path fill="#6A79A8" d="M164.328 306.831c8.465 10.885 4.515 24.083.452 35.927-1.072 3.158-2.37 6.373-3.273 9.588-.282 1.128-.451 2.312.226 3.327 1.41 2.087 4.74 1.918 6.884 1.579 2.821-.451 5.925-1.692 7.731-4.004 1.298-1.636 1.636-3.892 2.257-5.809 1.128-3.384 2.257-6.768 3.329-10.152 3.386-10.829 6.094-22.56.282-33.051-1.128-1.974-2.483-4.455-4.74-5.301-2.37-.903-5.191-.395-7.448.507-2.483.959-7.675 4.061-5.7 7.389.621 1.015 3.217 0 2.483-1.185-.959-1.635 2.145-3.44 3.273-4.06 2.37-1.241 5.417-1.692 7.392.394 2.822 2.99 4.345 7.502 5.079 11.45 1.806 9.982-2.032 20.304-5.135 29.61-.79 2.368-1.58 4.737-2.37 7.162-.508 1.523-.959 2.538-2.257 3.441-1.862 1.297-5.079 2.425-7.336 1.635-1.072-.338-1.467-.902-1.467-2.03 0-2.2 1.636-5.189 2.313-7.219 1.58-4.569 3.217-9.137 4.402-13.818 2.37-9.363 2.201-18.725-3.894-26.621-.733-.959-3.329.113-2.483 1.241z"/><path fill="#DEF3F9" d="M481.74 318.449l-228.028 21.094 2.257-.79 7.731-3.271-5.869-1.636 4.345-2.763-.225-2.989 226.165-20.756-6.376 11.111z"/><path fill="#6A79A8" d="M481.852 317.434c-7.561.677-15.123 1.41-22.741 2.087-18.17 1.692-36.339 3.384-54.509 5.019l-65.683 6.092c-19.017 1.748-38.033 3.496-56.993 5.245-6.264.564-12.527 1.184-18.791 1.748-1.919.169-3.894.339-5.812.564-.847.057-2.257-.056-3.047.282-.113.057-.282 0-.395.057.056.62.113 1.297.113 1.917 3.498-1.241 6.94-2.707 10.326-4.173.734-.282 1.185-1.467.169-1.749-1.975-.564-3.95-1.071-5.925-1.635.057.507.057 1.015.113 1.522 1.467-.958 2.934-1.861 4.345-2.82.339-.225.508-.62.452-1.015-.057-.959-.17-1.974-.226-2.933-.508.452-1.016.903-1.467 1.354 7.505-.677 15.01-1.354 22.515-2.087 18-1.635 36.058-3.327 54.058-4.963 21.725-1.974 43.394-4.004 65.119-5.978 18.847-1.749 37.694-3.441 56.541-5.189l18.622-1.692c1.918-.169 3.893-.339 5.812-.508.79-.056 2.313.057 3.047-.282.113-.056.282 0 .395-.056l-1.185-1.185c-2.144 3.723-4.232 7.445-6.376 11.168-.734 1.297 2.031 1.353 2.595.338 2.145-3.722 4.232-7.445 6.377-11.167.451-.79-.621-1.241-1.185-1.185-7.505.677-15.01 1.354-22.515 2.087-18.001 1.636-36.058 3.328-54.059 4.963-21.725 1.974-43.393 4.005-65.118 5.979-18.848 1.748-37.695 3.44-56.542 5.189-9.085.846-18.452 1.184-27.481 2.538-.112 0-.282 0-.395.056-.733.056-1.523.564-1.467 1.354.057.958.17 1.974.226 2.932.169-.338.282-.676.451-1.015-1.467.959-2.934 1.861-4.345 2.82-.62.395-.677 1.354.113 1.523 1.975.564 3.95 1.072 5.925 1.636.057-.564.113-1.128.17-1.749-3.33 1.41-6.772 2.877-9.65 3.892-1.241.451-1.58 2.087.113 1.917 7.562-.676 15.123-1.41 22.741-2.086 18.17-1.692 36.34-3.384 54.51-5.02l65.683-6.091c19.016-1.749 38.033-3.497 56.993-5.245 9.141-.846 18.565-1.185 27.65-2.538.113 0 .282 0 .395-.057 1.636 0 2.2-2.03.338-1.861z"/><path fill="#fff" d="M510.404 308.692l-343.593-3.271 2.99-10.321 341.055 3.158-.452 10.434z"/><path fill="#6A79A8" d="M510.517 307.733l-34.365-.338c-27.311-.282-54.622-.508-81.934-.79-33.011-.338-66.021-.62-99.032-.959l-86.054-.846c-9.367-.112-18.79-.169-28.157-.282-2.935 0-5.869-.056-8.803-.056-1.411 0-3.217-.338-4.627-.056-.17.056-.395 0-.565 0 .395.282.847.62 1.242.902 1.015-3.44 1.975-6.881 2.99-10.321-.507.395-1.015.733-1.523 1.128l33.913.338c27.143.226 54.285.508 81.427.733 32.841.282 65.683.621 98.524.903 28.384.282 56.824.507 85.207.789 9.424.113 18.791.17 28.215.282 2.877 0 5.812.057 8.69.057 1.41 0 3.16.338 4.57.056.17-.056.395 0 .565 0-.395-.282-.847-.62-1.242-.902-.169 3.497-.338 6.937-.451 10.434-.057 1.41 2.708 1.015 2.765-.226.169-3.497.338-6.937.451-10.434.057-.733-.677-.902-1.241-.902l-33.914-.339c-27.142-.225-54.284-.507-81.426-.733-32.842-.282-65.683-.62-98.525-.902-28.383-.282-56.823-.508-85.207-.79-9.423-.113-18.79-.169-28.214-.282-4.401-.056-8.859-.338-13.261-.113h-.564c-.677 0-1.298.452-1.524 1.128-1.015 3.441-1.975 6.881-2.99 10.322-.226.676.846.902 1.241.902l34.365.338c27.312.282 54.623.508 81.934.79 33.011.338 66.022.62 99.033.959l86.053.846c9.367.113 18.791.169 28.158.282 4.458.056 8.972.338 13.374.113h.564c1.636-.057 2.201-2.031.338-2.031z"/><path fill="#DEF3F9" d="M202.925 316.701s-69.238-2.538-70.649-.846c.057-.057 23.531-10.603 23.531-10.603l53.212 1.071-6.094 10.378z"/><path fill="#6A79A8" d="M203.377 315.686c-20.879-.734-41.814-1.636-62.749-1.41-2.426 0-7.561-.734-9.536 1.184-1.072 1.072.959 1.636 1.749 1.241 4.853-2.538 10.101-4.512 15.066-6.768 2.596-1.185 5.305-2.2 7.788-3.497.846-.451.677-.056 0-.113.451.057.902 0 1.354 0 12.866.282 25.731.508 38.653.79 4.402.113 8.747.169 13.148.282l-1.185-1.185a1000.294 1000.294 0 01-6.15 10.322c-.79 1.297 1.975 1.353 2.595.338 2.032-3.44 4.063-6.881 6.151-10.321.508-.79-.621-1.128-1.185-1.185l-33.293-.676-17.831-.339c-3.217-.056-5.53 1.354-8.465 2.707-5.925 2.651-12.132 5.076-17.887 8.066.564.394 1.185.789 1.749 1.24-.677.621-.677.282-.113.282.621.057 1.354-.112 1.975-.169 1.806-.113 3.668-.113 5.474-.113 5.586-.056 11.229.057 16.815.113 12.189.226 24.321.564 36.51.959 2.765.113 5.53.169 8.351.282 1.411 0 2.878-1.974 1.016-2.03z"/><path fill="#DEF3F9" d="M243.949 329.504c-4.797-5.189-12.076-9.081-17.719-13.311-6.038-4.512-12.076-9.024-18.057-13.479-.113-.113-.226-.17-.339-.282l-1.58 1.974c-.903-.621-5.53-4.569-5.53-4.569s.847 4.907 1.185 6.204c-2.99-1.579-9.593-4.004-9.593-4.004 1.129 1.41 10.045 11.505 10.158 11.675 4.965 5.64 12.922 9.7 19.072 14.325 4.628 3.497 9.48 6.881 14.051 10.603 2.088-1.522-.226-4.399-.733-5.922 1.805 0 3.442.17 5.078.564a8.354 8.354 0 00.452-3.271c-.057 0 3.272-.451 3.555-.507z"/><path fill="#6A79A8" d="M245.19 328.883c-4.909-5.132-11.116-8.573-16.872-12.69-6.602-4.737-13.035-9.701-19.524-14.551-.621-.451-1.749-.169-2.201.395a47.89 47.89 0 01-1.58 1.974c.734-.113 1.467-.282 2.201-.395-1.975-1.354-3.724-3.046-5.53-4.568-.734-.621-2.596.112-2.426 1.128.338 2.086.677 4.173 1.185 6.204.79-.395 1.636-.734 2.426-1.128-3.16-1.58-6.546-2.877-9.875-4.174-.677-.282-2.878.451-2.031 1.466 3.893 4.851 8.069 9.927 12.64 14.157 4.288 3.948 9.423 6.881 14.22 10.152 5.699 3.891 11.229 8.121 16.646 12.408.621.507 1.693.113 2.201-.395 2.088-2.143.451-4.399-.508-6.655l-1.862 1.353c1.636.057 3.16.17 4.796.508.847.169 1.919-.113 2.144-1.015.339-1.128.452-2.143.452-3.271-.621.338-1.242.733-1.862 1.071 1.41.057 2.934-.282 4.345-.507 1.693-.339 1.185-2.144-.508-1.805-.847.169-2.032.451-2.878.395-.564 0-1.862.282-1.862 1.071 0 1.185-.113 2.2-.452 3.271a74.225 74.225 0 002.145-1.015 29.083 29.083 0 00-5.417-.677c-.565 0-2.258.395-1.863 1.354.621 1.41 2.427 3.666.96 5.132.733-.112 1.467-.282 2.2-.394a322.146 322.146 0 00-15.856-11.901c-5.079-3.553-10.665-6.599-15.236-10.941-4.345-4.118-8.238-8.912-11.963-13.536-.677.507-1.354 1.015-2.031 1.466 3.16 1.184 6.32 2.369 9.311 3.892.733.394 2.708.056 2.426-1.128-.508-2.031-.846-4.118-1.185-6.204-.79.394-1.636.733-2.426 1.128 1.805 1.579 3.555 3.214 5.53 4.568.62.451 1.749.169 2.2-.395a48.746 48.746 0 011.58-1.974c-.733.113-1.467.282-2.2.395 6.263 4.681 12.47 9.419 18.79 14.044 5.756 4.23 12.189 7.614 17.155 12.859.959 1.015 3.555-.113 2.595-1.072z"/><path fill="#fff" d="M478.128 324.315l-354.202 1.805 3.385-10.604 351.551-1.861-.734 10.66z"/><path fill="#6A79A8" d="M478.297 323.356l-35.268.169c-28.214.169-56.429.282-84.643.451l-102.418.508c-29.512.169-58.968.282-88.48.451l-29.117.169c-2.991 0-5.981.057-8.972.057-1.467 0-3.329-.282-4.74 0-.169.056-.452 0-.621 0l1.185 1.184c1.129-3.553 2.201-7.05 3.329-10.603-.451.282-.959.564-1.41.846l35.155-.169c27.932-.169 55.864-.282 83.796-.451l101.854-.508c29.173-.169 58.347-.282 87.52-.451l28.892-.169c3.047 0 6.038-.057 9.085-.057 1.411 0 3.329.339 4.74 0 .169-.056.395 0 .564 0-.395-.282-.846-.62-1.241-.902-.226 3.553-.452 7.106-.734 10.659-.113 1.41 2.652 1.016 2.765-.225.226-3.553.452-7.107.734-10.66.056-.733-.677-.902-1.242-.902l-35.155.169c-27.932.169-55.864.282-83.796.451l-101.854.508c-29.173.169-58.347.282-87.52.451l-28.892.169c-4.571 0-9.254-.282-13.825.057h-.564c-.452 0-1.242.338-1.411.846-1.128 3.553-2.201 7.05-3.329 10.603-.282.846.451 1.184 1.185 1.184l35.268-.169c28.214-.169 56.428-.282 84.643-.451l102.417-.508c29.513-.169 58.968-.282 88.48-.451l29.118-.169c4.514 0 9.141.169 13.655-.057h.621c1.524-.056 2.032-2.086.226-2.03z"/><path fill="#fff" d="M515.653 298.314l-341.111-3.158 4.289-15.172 337.499 2.99-.677 15.34z"/><path fill="#6A79A8" d="M515.766 297.299l-33.914-.338c-27.142-.226-54.284-.508-81.426-.733-32.842-.282-65.683-.621-98.525-.903-28.383-.282-56.823-.507-85.207-.789-9.423-.113-18.791-.17-28.214-.282-2.878 0-5.812-.057-8.69-.057-1.411 0-3.16-.338-4.571-.056-.169.056-.395 0-.564 0 .395.282.846.62 1.241.902 1.467-5.076 2.878-10.152 4.345-15.171-.508.394-1.015.733-1.523 1.128 11.285.112 22.515.225 33.8.282 26.86.225 53.72.451 80.58.733l97.34.846c28.045.225 56.09.507 84.135.733 9.31.056 18.565.169 27.875.226 2.878 0 5.756.056 8.634.056 1.354 0 3.16.338 4.458.056.169-.056.395 0 .564 0-.395-.282-.846-.62-1.241-.902-.226 5.132-.452 10.265-.621 15.341-.056 1.41 2.709 1.015 2.765-.226.226-5.132.451-10.265.621-15.341.056-.733-.677-.902-1.242-.902-11.285-.113-22.515-.226-33.8-.282-26.86-.226-53.72-.451-80.58-.733l-97.34-.846c-28.045-.226-56.09-.508-84.135-.733-9.31-.057-18.565-.17-27.875-.226-4.345-.056-8.803-.338-13.148-.113h-.565c-.677 0-1.297.451-1.523 1.128-1.467 5.076-2.878 10.152-4.345 15.172-.226.677.846.902 1.241.902l33.914.339c27.142.225 54.284.507 81.426.733 32.842.282 65.683.62 98.525.902 28.383.282 56.823.508 85.207.79 9.423.113 18.79.169 28.214.282 4.401.056 8.859.338 13.261.113h.564c1.693 0 2.201-1.974.339-2.031z"/><path fill="#DEF3F9" d="M516.838 277.785c-2.765.113-5.53.225-8.239.282-18.847.677-37.75 1.41-56.597 2.087-12.753.451-25.563.62-38.259 1.466-.056-.902-4.401-2.2-4.853-1.636 1.354-1.748 3.047-3.384 4.966-4.455-1.129.056-2.201-.169-3.273-.282.734-1.297 2.144-1.805 3.329-2.651-3.724.169-7.674.226-11.398.113 1.467-1.354 4.288-1.861 6.094-2.933 3.611-2.03 5.981-3.102 9.819-3.271 18.677-.677 37.355-1.41 56.033-2.087 14.107-.508 28.271-1.072 42.378-1.579v14.946z"/><path fill="#6A79A8" d="M516.951 276.77c-17.155.62-34.366 1.297-51.52 1.917-17.211.621-34.421.846-51.576 1.918.395.225.847.451 1.242.62-.847-1.861-4.966-3.102-6.828-2.087.564.395 1.185.79 1.749 1.241 1.411-1.692 2.878-3.102 4.74-4.23 1.072-.677.113-1.635-.79-1.635-1.015 0-1.975-.17-2.934-.282.226.451.451.958.677 1.41.847-1.128 1.919-1.692 3.104-2.426 1.072-.676.169-1.692-.79-1.635-3.668.113-7.336.225-11.06.113.169.564.282 1.071.451 1.635 1.524-1.241 3.442-1.579 5.192-2.425 1.805-.846 3.442-1.918 5.304-2.594 4.458-1.58 9.875-1.016 14.502-1.185 9.706-.338 19.411-.733 29.117-1.071 19.694-.734 39.444-1.467 59.137-2.2-.395-.282-.846-.62-1.241-.902.056 4.963.056 9.926.113 14.889 0 1.41 2.765 1.015 2.765-.225-.057-4.964-.057-9.927-.113-14.89 0-.677-.677-.902-1.241-.902-20.823.789-41.701 1.579-62.523 2.312-10.44.395-20.935.79-31.375 1.184-4.119.17-7.9.226-11.737 1.918-1.693.79-3.273 1.805-5.022 2.482-1.636.676-3.273 1.184-4.684 2.312-.677.564-.564 1.579.452 1.636 3.893.112 7.843.056 11.737-.113-.282-.564-.508-1.072-.79-1.636-1.354.846-2.596 1.579-3.555 2.877-.508.62-.113 1.297.677 1.41 1.242.169 2.427.282 3.668.282-.282-.564-.508-1.072-.79-1.636-2.031 1.241-3.668 2.82-5.191 4.681-.96 1.128.902 1.636 1.749 1.241-.057.056 2.652.677 2.878 1.184.225.508.733.677 1.241.621 17.154-1.128 34.422-1.297 51.576-1.918 17.154-.62 34.365-1.297 51.519-1.917 1.467 0 2.032-2.031.17-1.974z"/><path fill="#fff" d="M397.829 276.6c-.225.17-.507.282-1.128.282h-1.806c-1.185 0-2.37 0-3.555-.056-3.498-.056-7.053-.056-10.552-.113-4.796-.056-9.649-.056-14.446-.113l-17.549-.169-19.806-.169-21.274-.169-21.951-.169-21.781-.17-20.879-.169-19.129-.169-16.59-.169c-4.401-.057-8.859-.057-13.261-.113-3.047 0-6.094-.056-9.198-.056-1.41 0-2.877 0-4.288-.057h-.226l4.232-14.777h2.652c2.483 0 5.023.057 7.505.057 3.894.056 7.731.056 11.625.113 4.965.056 9.988.056 15.01.112l17.662.17 19.581.169 20.765.169 21.217.169 20.935.169 19.92.17 18.17.169c5.248.056 10.439.113 15.687.113 4.176.056 8.295.056 12.471.112 2.821 0 5.642.057 8.464.057h2.483c.225 0 .62-.057.79 0 .056.056.282-.057.338.056.339.508-3.103 1.749-3.611 1.974-.903.339-1.806.677-2.765.959-2.314.733-4.684 1.692-7.054 2.369.226.507 2.088.564 2.652.62 1.524.226 2.991.564 4.571.677 1.411.113 3.273-.226 4.514.395-1.241.451-2.652.789-3.78 1.41 1.41.677 2.99 1.128 4.401 1.748-.846.169-2.708 1.015-2.934 1.918 1.016.225 2.031.677 2.934 1.128-.621.677-.733 1.071-1.016 1.353z"/><path fill="#6A79A8" d="M397.209 275.811c-.733.338-2.313.056-3.16.056-1.58 0-3.216 0-4.796-.056-3.555-.057-7.11-.057-10.665-.113l-21.556-.169c-14.559-.113-29.174-.282-43.732-.395-28.835-.226-57.67-.508-86.505-.733-15.462-.113-30.923-.282-46.385-.395.395.282.847.62 1.242.902 1.411-4.906 2.821-9.813 4.232-14.776-.508.394-1.016.733-1.524 1.128 56.937.451 113.817.958 170.753 1.41 7.844.056 15.744.112 23.588.225 3.837.057 7.617.057 11.455.113 2.821 0 6.376-.451 9.085.113l-.903-.903c0 .113-4.063 1.523-4.289 1.58-2.652.902-5.304 1.861-7.956 2.707-.452.113-1.637.902-1.016 1.523 1.016 1.015 2.539.902 3.894 1.128 1.354.225 2.708.507 4.119.62 1.411.113 2.821-.169 4.176.338l.507-1.861c-1.41.508-2.821.903-4.119 1.523-.79.395-1.128 1.354-.169 1.748 1.467.621 2.991 1.128 4.401 1.749l.508-1.861c-1.58.451-3.16 1.24-4.006 2.707-.226.451.056.959.508 1.071 1.072.282 1.975.677 2.934 1.128l-.339-1.353c-.282.395-.564.902-.903 1.297-1.072 1.354 1.468 1.805 2.258.79.338-.452.564-.846.902-1.298.395-.564.283-1.015-.338-1.353-.959-.451-1.919-.79-2.934-1.128.169.338.338.733.507 1.071.508-.62 1.129-.958 1.919-1.128.903-.225 1.693-1.353.508-1.861-1.467-.62-2.991-1.128-4.402-1.748-.056.564-.112 1.128-.169 1.748 1.072-.564 2.257-.902 3.442-1.297.79-.282 1.806-1.41.508-1.861-1.862-.677-3.781-.339-5.756-.564-1.241-.113-2.426-.395-3.611-.564-.451-.057-1.524.056-1.862-.226l-1.016 1.523c3.555-1.072 7.11-2.312 10.552-3.61 1.072-.394 3.95-1.184 3.95-2.707 0-.564-.395-.789-.903-.902-1.918-.395-4.175-.057-6.094-.057-3.498-.056-6.997-.056-10.496-.112l-21.725-.17-42.603-.338c-28.948-.226-57.952-.508-86.9-.733-15.913-.113-31.826-.282-47.795-.395-.677 0-1.298.451-1.524 1.128a5108.036 5108.036 0 00-4.232 14.777c-.226.677.846.902 1.241.902l173.913 1.523c8.126.056 16.195.169 24.321.226 3.894.056 7.844.056 11.737.112 2.483 0 6.038.734 8.295-.394 1.806-1.016.339-2.538-1.072-1.805z"/><path fill="#fff" d="M517.345 258.101l-331.461-2.707 4.119-14.382 327.963 2.594-.621 14.495z"/><path fill="#6A79A8" d="M517.458 257.086c-11.003-.113-22.063-.169-33.067-.282l-79.113-.677c-31.995-.282-63.99-.507-95.928-.789l-82.668-.677c-9.085-.057-18.17-.169-27.199-.226-2.821 0-5.642-.056-8.464-.056-1.354 0-3.103-.339-4.401-.057-.17.057-.395 0-.565 0 .395.282.847.621 1.242.903 1.354-4.794 2.708-9.588 4.119-14.326-.508.395-1.016.733-1.523 1.128 10.89.113 21.781.169 32.728.282 26.183.226 52.366.395 78.549.621 31.543.225 63.087.507 94.63.733 27.255.225 54.51.451 81.765.62 8.973.057 17.945.169 26.973.226 2.822 0 5.587.056 8.408.056 1.354 0 3.104.339 4.402.057.169-.057.395 0 .564 0-.395-.282-.846-.621-1.242-.903-.225 4.851-.395 9.645-.62 14.495-.057 1.41 2.708 1.015 2.765-.226.225-4.85.395-9.644.62-14.494.057-.734-.677-.903-1.241-.903-10.891-.113-21.781-.169-32.729-.282-26.182-.225-52.365-.395-78.548-.62-31.544-.226-63.087-.508-94.631-.733-27.255-.226-54.51-.452-81.765-.621-8.972-.056-17.944-.169-26.973-.225-4.232-.057-8.577-.339-12.809-.113h-.564c-.677 0-1.298.451-1.524 1.128-1.354 4.794-2.708 9.588-4.119 14.325-.226.677.846.903 1.241.903 11.004.113 22.064.169 33.067.282l79.113.677c31.995.282 63.99.507 95.929.789l82.668.677c9.085.056 18.17.169 27.198.226 4.289.056 8.634.394 12.922.112h.565c1.58 0 2.088-2.03.225-2.03z"/><path fill="#DEF3F9" d="M524.06 237.346l-310.357 9.87c.452-1.918 1.354-1.072 3.217-2.087.959-.507 3.95-1.748 4.796-1.748-2.201.056-3.95-2.369-6.207-2.087 4.176-.62 9.536-1.861 13.543-3.892-2.596-.394-4.91-1.41-7.28-2.199-1.072-.395-5.417-.79-4.909-2.087.169 0 .508.056.677 0 1.072-.395 2.822-.113 3.837-.113 2.314-.056 4.628-.169 6.885-.225 7.223-.226 14.502-.452 21.781-.677 10.101-.339 20.145-.621 30.246-.959l36.227-1.184c13.204-.452 26.465-.846 39.669-1.298 13.543-.451 27.086-.846 40.629-1.297 12.978-.395 25.957-.846 38.992-1.241 11.568-.394 23.192-.733 34.76-1.128 9.311-.282 18.678-.62 27.989-.902 6.207-.226 12.414-.395 18.677-.62.339 0 6.772-.226 6.772-.226.056.282.056 14.1.056 14.1z"/><path fill="#6A79A8" d="M524.229 236.331l-30.979 1.015-74.316 2.369-89.552 2.876c-25.788.846-51.576 1.636-77.364 2.482-8.521.282-16.985.564-25.506.789-2.652.113-5.304.17-8.013.282-1.185.057-2.99-.225-4.119.113-.169.057-.395 0-.564 0l1.185 1.185c.395-1.185 5.304-2.82 6.602-2.99 1.072-.169 2.37-1.804.564-1.974-2.426-.225-4.006-2.086-6.545-2.086-.057.676-.17 1.353-.226 2.03 4.909-.79 9.762-1.918 14.276-4.061.96-.451 1.016-1.579-.113-1.805-.564-.112-11.342-2.989-11.285-3.44-.621.338-1.242.733-1.862 1.072 3.667.225 7.561-.226 11.285-.339l15.744-.507 31.713-1.016c20.935-.676 41.87-1.353 62.748-2.03 42.491-1.354 84.982-2.707 127.472-4.117 19.468-.621 38.993-1.805 58.46-1.861-.395-.282-.846-.621-1.241-.903 0 4.681.056 9.363.056 14.1 0 1.41 2.765 1.015 2.765-.225 0-4.682-.056-9.363-.056-14.1 0-.734-.677-.903-1.241-.903-16.647.057-33.406 1.072-50.053 1.579l-63.764 2.031c-41.813 1.353-83.683 2.707-125.497 4.004-11.737.395-23.474.733-35.211 1.128-5.813.169-11.625.395-17.38.564-2.765.113-5.474.169-8.239.282-2.144.057-4.514.339-6.659.226-.677-.057-1.749.282-1.862 1.071-.225 1.805 2.314 2.2 3.612 2.482 3.216.733 6.263 2.143 9.536 2.707-.056-.62-.113-1.184-.113-1.805-4.063 1.918-8.408 2.99-12.865 3.723-1.468.225-2.145 2.03-.226 2.03 2.031 0 3.781 1.861 5.812 2.087.169-.677.395-1.354.564-1.974-1.975.282-3.724 1.241-5.53 1.974-1.749.677-3.329.733-3.95 2.764-.282.846.452 1.184 1.185 1.184l30.98-1.015 74.316-2.369 89.552-2.876c25.788-.846 51.576-1.636 77.364-2.482 8.52-.282 16.985-.564 25.505-.79 4.007-.112 8.126 0 12.133-.394h.564c1.636-.113 2.144-2.144.338-2.087z"/><path fill="#BBDFF5" d="M536.192 217.268c-2.539-.057-5.191.564-7.449 1.692-17.38 8.685-18.113 33.952-16.307 50.196 1.297 11.336 1.805 29.271-11.568 35.024-10.947 4.681-22.064 5.302-30.246 15.736-6.038 7.726-8.013 17.878-8.746 27.466-.395 5.302-.113 10.716-.565 16.131-2.934-.282-7.166 1.015-8.859 3.948-2.314 4.004-.508 7.163 3.273 8.46 4.119 1.353 9.593.507 13.373-2.031 4.12-2.763 5.305-7.388 5.474-12.013.169-5.865.113-11.731.621-17.484 1.128-13.479 5.699-27.861 20.596-30.512 2.596-.451 5.361-.395 7.505.959 11.794 7.557 5.756 35.25 4.74 47.263-.226 2.481 1.524 3.666 3.837 3.948 3.837.451 9.142-1.692 9.424-5.133.677-8.854 1.636-17.766 1.241-26.395-.508-11.787-2.37-23.349-.169-34.742 2.596-13.367 1.58-27.129 1.636-40.213.057-11.957.508-24.704 9.311-33.84 1.129-.282 1.806 1.24 1.524 2.312-.621 2.2-1.411 4.343 1.636 5.414 3.724 1.354 8.352-.846 9.706-4.342 2.201-6.261-3.894-11.732-9.988-11.844zm-32.051 85.502c-.057 0-.057 0 0 0z"/><path fill="#6A79A8" d="M536.7 216.365c-11.455.113-19.637 9.475-23.136 19.571-3.611 10.265-3.668 21.658-2.596 32.374 1.016 9.982 2.201 22.503-4.739 30.794-4.289 5.076-11.456 6.43-17.493 8.46-5.869 1.974-11.568 4.399-16.139 8.629-5.756 5.415-8.972 12.859-10.609 20.473-1.918 8.912-1.354 17.936-2.087 26.96l1.862-1.016c-3.894-.225-8.521 1.185-10.665 4.738-2.257 3.835-.677 7.67 3.385 9.193 4.345 1.636 9.65.846 13.713-1.241 4.401-2.256 6.884-6.373 7.448-11.223.847-6.712.226-13.593.847-20.304.451-4.794 1.241-9.588 2.877-14.1 1.75-4.738 4.515-9.306 8.803-12.126 4.571-3.046 11.681-4.963 15.913-.451 5.699 6.034 5.192 16.581 4.74 24.252-.282 4.23-.79 8.46-1.298 12.69-.338 2.82-1.975 7.952-.451 10.546 2.031 3.384 7.674 2.482 10.665 1.241 1.58-.677 3.273-1.692 4.176-3.215 1.354-2.312.959-5.978 1.185-8.572.564-6.994 1.015-14.044.677-21.094-.395-7.388-1.242-14.72-1.185-22.109.056-7.896 2.031-15.623 2.539-23.462.508-7.783.226-15.567.169-23.35-.113-13.085-.451-27.918 9.029-38.126-.564.169-1.072.395-1.637.564.96.056-.056 4.85.339 5.696.677 1.467 2.426 2.031 3.894 2.256 3.272.508 6.997-.846 9.141-3.384 5.869-6.824-2.483-14.213-9.367-14.664-1.185-.056-2.822 1.636-1.016 1.749 5.756.338 13.374 7.332 7.674 12.915-2.031 1.974-8.294 3.102-7.787-1.297.17-1.692 1.355-4.061-.959-4.907-1.975-.733-3.273 1.185-4.289 2.482-1.636 2.087-3.047 4.399-4.062 6.824-2.314 5.302-3.16 11.111-3.499 16.864-.79 13.423.621 26.959-.677 40.382-.677 7.389-2.314 14.439-2.201 21.94.113 7.163.959 14.325 1.242 21.545.282 7.614-.395 15.228-.96 22.842-.113 1.522.057 3.44-.733 4.794-.79 1.353-2.652 2.199-4.176 2.481-1.58.339-4.063.508-5.191-.959-.903-1.071-.621-2.481-.508-3.778.903-8.686 2.426-17.315 2.313-26.057-.112-6.994-1.015-16.977-8.238-20.53-4.12-2.03-9.593-.733-13.6 1.072-4.062 1.805-7.392 4.737-9.875 8.46-7.053 10.603-6.602 24.477-6.884 36.603-.056 3.328-.169 6.712-1.693 9.758-1.918 3.778-5.981 5.752-10.1 6.091-3.104.225-7.731-.564-8.521-4.23-.959-4.512 4.119-7.276 7.9-7.05.564.056 1.806-.282 1.862-1.015 1.129-14.495-.508-30.174 8.69-42.582 4.458-6.035 10.891-9.25 17.831-11.562 5.192-1.749 11.06-3.046 15.631-6.148 8.295-5.696 9.819-16.582 9.593-25.888-.226-9.982-1.919-19.683-.734-29.722 1.411-11.788 7.505-29.159 22.008-29.272 1.072-.056 2.765-1.805.959-1.805z"/><path fill="#6A79A8" d="M503.632 303.616c1.129 0 2.822-1.748 1.016-1.748-1.185 0-2.878 1.748-1.016 1.748z"/><path fill="#DBDBDB" d="M213.477 215.632c-6.545-.056-15.405 6.26-20.032 10.942-5.643 5.752-9.649 12.802-12.245 19.796-3.16 8.573-4.345 17.258-6.376 26.057-1.693 7.445-3.894 19.176-11.512 24.985-2.765 2.087-5.981 3.271-9.141 4.23-8.013 2.482-16.308 4.117-23.869 8.911-8.239 5.189-14.503 13.593-18.622 22.165-4.119 8.686-6.207 17.654-8.351 26.621-2.54.169-5.248.621-7.731 2.256-2.483 1.579-4.57 4.625-4.176 6.937.339 2.087 2.427 2.933 4.458 3.328 4.909.959 11.286-.226 15.687-4.738 3.047-3.158 4.458-7.275 5.53-11.11 1.919-6.938 3.16-13.875 5.756-20.643 2.539-6.768 6.659-13.592 12.696-18.273 11.06-8.517 25.393-7.614 36.397-15.849 6.263-4.681 10.326-11.675 12.583-18.386 2.258-6.655 2.991-13.254 4.176-19.74 1.693-9.137 4.458-18.274 8.859-26.959 2.427-4.851 6.038-10.04 11.286-11.901 2.934-1.015 6.659-1.297 8.126-3.891 1.298-2.256-.508-4.512-2.934-4.682-.057-.056-.339-.056-.565-.056z"/><path fill="#BBDFF5" d="M213.477 215.632c-6.545-.056-15.405 6.26-20.032 10.942-5.643 5.752-9.649 12.802-12.245 19.796-3.16 8.573-4.345 17.258-6.376 26.057-1.693 7.445-3.894 19.176-11.512 24.985-2.765 2.087-5.981 3.271-9.141 4.23-8.013 2.482-16.308 4.117-23.869 8.911-8.239 5.189-14.503 13.593-18.622 22.165-4.119 8.686-6.207 17.654-8.351 26.621-2.54.169-5.248.621-7.731 2.256-2.483 1.579-4.57 4.625-4.176 6.937.339 2.087 2.427 2.933 4.458 3.328 4.909.959 11.286-.226 15.687-4.738 3.047-3.158 4.458-7.275 5.53-11.11 1.919-6.938 3.16-13.875 5.756-20.643 2.539-6.768 6.659-13.592 12.696-18.273 11.06-8.517 25.393-7.614 36.397-15.849 6.263-4.681 10.326-11.675 12.583-18.386 2.258-6.655 2.991-13.254 4.176-19.74 1.693-9.137 4.458-18.274 8.859-26.959 2.427-4.851 6.038-10.04 11.286-11.901 2.934-1.015 6.659-1.297 8.126-3.891 1.298-2.256-.508-4.512-2.934-4.682-.057-.056-.339-.056-.565-.056z"/><path fill="#6A79A8" d="M213.985 214.955c-10.721.282-20.878 9.306-26.747 17.541-8.577 11.956-10.608 26.169-13.768 40.156-1.129 4.907-2.145 9.87-4.12 14.552-2.821 6.88-7.335 11.28-14.502 13.648-6.263 2.031-12.753 3.441-18.847 6.035-5.699 2.425-10.778 5.979-15.066 10.434-11.117 11.562-15.349 27.016-18.904 42.244.508-.282 1.016-.564 1.58-.846-3.386.282-6.94 1.071-9.65 3.215-2.2 1.692-4.908 5.132-3.385 8.008 1.298 2.482 4.966 2.877 7.449 2.933 3.216.113 6.489-.507 9.423-1.861 7.9-3.61 10.27-11.506 12.245-19.345 2.314-9.25 4.402-18.612 9.875-26.621 5.587-8.178 13.543-12.182 22.797-14.946 7.393-2.2 14.954-4.23 21.161-9.024 15.405-11.957 14.333-32.317 19.355-49.35 1.58-5.414 3.612-10.772 6.207-15.848 2.37-4.569 5.643-9.645 10.778-11.337 2.822-.959 6.489-1.297 8.352-4.004 2.257-3.215-1.185-5.471-4.233-5.584-.959-.056-2.934 1.297-1.128 1.41 3.442.169 4.288 3.779 1.467 5.527-1.411.903-3.273 1.072-4.853 1.58-2.708.846-5.078 2.256-7.166 4.23-5.022 4.85-7.957 12.013-10.27 18.442-2.878 7.896-4.458 16.074-5.869 24.365-1.354 7.671-3.16 15.285-7.392 21.94-4.401 6.881-10.721 11.28-18.339 13.931-6.49 2.256-13.261 3.609-19.525 6.655-13.542 6.542-19.298 20.022-22.74 33.896-2.145 8.46-3.499 19.909-12.81 23.575-2.99 1.185-10.608 2.313-12.357-1.579-.96-2.143.846-4.737 2.37-6.147 2.144-1.974 4.965-2.482 7.73-2.708.452-.056 1.467-.338 1.58-.846 3.047-13.141 6.49-26.395 14.841-37.336 4.232-5.584 9.48-10.265 15.856-13.254 6.151-2.933 12.866-4.343 19.355-6.43 4.853-1.523 9.424-3.61 12.753-7.558 3.16-3.778 5.079-8.516 6.433-13.197 3.555-12.126 4.514-25.042 9.198-36.829 2.652-6.599 6.489-12.86 11.511-17.936 4.571-4.624 11.455-10.095 18.227-10.264.959-.113 2.991-1.523 1.128-1.467z"/><path fill="#DBDBDB" d="M480.385 301.98s10.214-7.726 20.315 2.538c4.57 4.625 5.36 11.732 4.232 17.879-1.185 6.543-5.53 11.619-11.737 14.157-2.54 1.071-5.361.902-8.013 1.579-2.201.564-5.248.846-7.054 2.256-1.636 1.297-3.273 2.538-4.966 3.835-1.185.902-2.37 1.805-3.047 3.102-.733 1.297-.846 2.989.057 4.117 2.144 2.651-.96 4.005-3.668 3.61-1.354-.169-2.539-1.015-3.442-1.974-1.862-2.031-2.822-4.851-2.483-7.614.677-5.302 5.248-7.332 9.423-9.588 3.612-1.974 7.449-3.948 11.568-4.681 4.571-.79 9.48-1.128 12.753-4.851 3.16-3.553 3.837-8.516 2.765-13.028-1.241-5.189-4.458-9.193-10.044-9.137-.847.056-9.142-.056-6.659-2.2z"/><path fill="#6A79A8" d="M481.401 302.037c3.216-2.369 7.561-2.82 11.285-1.523 7.054 2.425 11.06 9.25 11.342 16.469.226 6.599-2.087 13.141-7.561 17.145-5.699 4.174-13.543 2.256-19.355 6.148-2.483 1.636-5.869 3.948-7.731 6.373-.564.733-.959 1.467-1.128 2.425a4.625 4.625 0 00.169 2.144c.282.451.508.902.846 1.297.678 1.241-.112 1.861-2.426 1.861-3.329-.62-5.079-5.527-4.966-8.404.113-3.496 2.37-5.978 5.248-7.783 2.991-1.861 6.207-3.553 9.424-4.907 3.498-1.466 7.166-1.692 10.834-2.594 5.586-1.354 10.101-4.794 11.229-10.66 1.016-5.414-.733-12.746-6.094-15.397-1.975-.959-3.95-.959-6.038-1.071-.903-.057-6.207-.282-4.853-1.692.621-.621-1.975-.339-2.483.169-2.595 2.651 5.7 2.707 6.885 2.763 8.069.339 11.511 9.419 9.762 16.469-1.354 5.415-5.474 7.896-10.665 8.855-3.668.62-7.11 1.354-10.552 2.876-3.217 1.467-6.49 3.159-9.48 5.02-2.483 1.579-4.74 3.553-5.53 6.486-1.58 5.978 3.16 12.69 9.649 10.885 2.483-.677 3.611-1.917 2.426-4.286-2.257-4.456 4.007-8.178 7.223-10.321 4.007-2.651 9.142-2.087 13.6-3.384 2.877-.846 5.642-2.482 7.9-4.512 5.304-4.738 7.222-12.183 6.263-19.12-1.806-12.634-16.703-19.627-27.198-11.9-1.242.846 1.467.564 1.975.169z"/><path fill="#DBDBDB" d="M464.473 313.937c-12.809.733-26.747-.733-32.334-13.085-9.028-20.022 34.365-18.217 42.66-16.017 5.192 1.41 10.44 3.553 13.882 7.727 3.442 4.117 4.514 10.603 1.185 14.889-2.822 3.666-7.9 4.738-12.527 5.245-3.838.452-8.239.959-12.866 1.241z"/><path fill="#6A79A8" d="M465.037 313.204c-11.117.62-24.829-.282-30.81-11.28-1.524-2.764-2.652-6.204-1.354-9.25 1.128-2.707 3.78-4.342 6.376-5.414 6.771-2.82 14.728-3.102 21.951-2.989 7.279.113 14.502.789 20.991 4.455 6.151 3.497 11.624 12.014 6.546 18.669-2.596 3.384-7.167 4.061-11.06 4.568-4.289.508-8.577 1.015-12.866 1.241-1.298.056-2.257 1.579-.395 1.466 4.289-.282 8.577-.733 12.866-1.24 3.273-.395 6.546-.959 9.536-2.426 6.038-2.989 8.07-9.644 5.305-15.679-4.289-9.306-16.026-11.731-25.28-12.295-8.521-.508-17.663-.282-25.845 2.256-6.263 1.974-12.922 6.204-10.89 13.705 4.006 14.664 21.386 16.413 33.97 15.736.846-.113 2.765-1.636.959-1.523z"/><path fill="#E5E5E5" d="M433.661 312.866c-.621.394-1.072 1.353-.79 2.03.339.79 1.129 1.128 1.862 1.241.79.113 1.58-.057 2.257-.395.565-.282 1.411-.79 1.411-1.523 0-.338-.226-.677-.508-.902-.282-.226-.62-.339-.959-.451-.846-.226-2.201-.452-3.047-.113-.113.056-.169.113-.226.113z"/><path fill="#6A79A8" d="M432.984 312.753c-1.297.959-1.354 2.707.113 3.497 1.467.789 3.442.394 4.853-.452 1.242-.789 1.806-2.199.282-3.045-1.354-.733-3.498-.903-4.909-.226-1.016.508-.056 1.072.621.677 1.185-.564 5.022.677 2.99 2.087-.79.564-1.975.62-2.765 0-.79-.677-.677-1.692.113-2.256.339-.226.113-.451-.169-.564-.339-.169-.846.056-1.129.282z"/><path fill="#E5E5E5" d="M444.383 315.122c.056 1.015 1.467 2.03 2.37 2.143 1.129.113 2.257-.621 2.652-1.692.169-.508.847-1.861.282-2.256a1.497 1.497 0 00-.677-.169c-1.128 0-2.257.169-3.273.507-.338.113-.733.282-.959.564-.339.339-.451.621-.395.903z"/><path fill="#6A79A8" d="M443.537 315.347c.226 1.579 2.031 2.595 3.555 2.482 1.749-.113 2.878-1.41 3.442-2.989.169-.564.451-1.354 0-1.862-.508-.564-1.524-.507-2.201-.451-1.636.113-4.57.564-4.74 2.595-.056.846 1.58.62 1.637-.113.113-1.072 2.144-1.241 2.99-1.297.508 0 .79-.17.903.338.057.282-.225.846-.338 1.128-.282.79-.903 1.579-1.862 1.41-.79-.169-1.58-.902-1.693-1.692-.17-.733-1.806-.338-1.693.451z"/><path fill="#E5E5E5" d="M458.942 301.078c.056.395.056.79.056 1.184-.395 7.953-9.875 11.675-16.703 11.675-9.254 0-16.759-5.753-16.759-12.915 0-2.877 1.467-5.753 2.257-8.573.113-.339.17-.621.395-.903.677-.902 1.58-.62 2.596-.733 1.298-.169 1.749-.338 2.991-.902a21.44 21.44 0 018.464-1.749c2.596 0 5.248.452 7.561 1.41 1.073.452 2.088 1.241 3.16 1.58 1.242.394 2.765.225 4.176.225.959 1.636.226 3.046.508 4.625.339 1.805 1.072 3.384 1.298 5.076z"/><path fill="#6A79A8" d="M457.588 301.473c.508 6.937-6.433 11.054-12.527 11.787-6.433.734-14.277-1.917-17.211-8.065-1.58-3.384-.846-6.655.282-10.039.282-.79.452-2.143.959-2.82.565-.79-.112-.451 1.073-.79 1.072-.338 2.2-.394 3.272-.789 4.684-1.749 9.029-2.538 13.938-1.015 1.75.507 3.16 1.692 4.91 2.143 1.41.338 2.877.225 4.288.169-.282-.113-.508-.169-.79-.282.677 1.579.339 2.989.508 4.625.226 1.692 1.016 3.327 1.298 5.076.113.677 2.878.056 2.708-.733-.282-1.749-1.015-3.328-1.241-5.076-.226-1.636.169-3.046-.508-4.625-.113-.282-.564-.282-.79-.282-2.313.056-3.893-.395-5.981-1.41-1.806-.846-3.725-1.354-5.7-1.636-3.385-.451-6.94-.169-10.213.846-2.088.621-3.837 1.297-5.982 1.692-.846.169-1.636.282-2.37.79-1.015.733-1.185 1.861-1.58 3.045-.677 2.031-1.58 4.118-1.749 6.261-.564 5.865 3.894 10.434 8.972 12.577 5.248 2.2 11.23 2.03 16.534.226 5.53-1.862 11.116-6.035 10.608-12.465-.056-.564-2.765-.056-2.708.79z"/><path fill="#fff" d="M457.362 290.7c.508-.225 1.072-.394 1.411 0 .282.339.282.959.226 1.58-.057.733-.113 1.522-.339 2.312-.226.79-.621 1.579-1.185 2.087-.056 0-1.128-.451-1.241-.508a2.955 2.955 0 01-.96-.902c-.564-.733-.902-1.636-.846-2.538.056-1.072 2.088-1.692 2.934-2.031zM426.778 291.039c0-.564 0-1.128.452-1.297.395-.17 1.015.112 1.58.338.677.282 1.411.62 2.031 1.072.339.225 1.072.733 1.185 1.184.113.508-.395 1.297-.677 1.636-.903 1.015-2.483 1.128-3.724.564-.847-.452-.79-2.595-.847-3.497zM439.192 305.534c.395.394.79.846.621 1.24-.169.395-.79.621-1.354.846-.734.282-1.411.508-2.257.677-.452.057-1.242.226-1.637 0-.451-.282-.621-1.184-.677-1.635-.056-1.354.959-2.595 2.257-2.99.903-.338 2.37 1.241 3.047 1.862z"/><path fill="#fff" d="M439.813 307.959c-.339-.451-.678-.903-.452-1.354.226-.395.847-.507 1.467-.677.734-.169 1.467-.338 2.314-.338.451 0 1.298-.056 1.636.226.395.338.452 1.24.395 1.692-.113 1.353-1.298 2.425-2.595 2.65-.96.282-2.201-1.466-2.765-2.199z"/><path fill="#6A79A8" d="M428.64 294.592c-.056-.902-.056-1.805-.113-2.764 0-.451-.056-.846-.056-1.297v-.451c.113-.282.056-.282-.057-.113-.451.113-.903.226-1.354.395.564 0 1.411.733 1.919 1.015.733.395 1.41.79 2.144 1.241.903.508 3.329-.733 2.144-1.41l-3.555-2.03c-.959-.564-2.031-.79-3.047-.113-.734.507-.903 1.184-.846 2.03l.169 4.23c-.057 1.015 2.652.451 2.652-.733zM454.767 292.618l4.74-2.03c-.621 0-1.242-.057-1.862-.057.338 1.241.451 2.538.169 3.835-.226 1.072-.903 1.862-1.185 2.82-.226.734 2.483.395 2.708-.394.339-1.128 1.073-2.031 1.298-3.272.226-1.24.113-2.481-.225-3.722-.17-.564-1.58-.169-1.863-.056l-4.74 2.03c-1.805.79-.169 1.354.96.846zM434.114 300.57c.79.452 1.467.846 2.37.959.621.057 1.185.057 1.749-.169.508-.226.395-.169-.338.113.113 0 .225-.057.395-.057a2.5 2.5 0 00.903-.338c.282-.169.846-.564.282-.79-.565-.225-1.411.113-1.919.339.734-.226.847-.282.452-.169-.113 0-.226.056-.339.056-.282.056-.508.169-.79.282l1.693-.338c-.339-.057-.677-.057-1.016-.17-.338-.169-.621-.394-.959-.564-.508-.282-1.242-.112-1.749.113-.113-.113-1.242.451-.734.733zM441.618 302.037c1.524 1.241 3.725 1.015 5.53.564.508-.169 1.298-.621 1.129-1.241-.169-.62-1.129-.677-1.58-.564-1.016.282-2.031.451-2.934-.282-.96-.733-3.329.564-2.145 1.523zM443.481 309.651c-1.355.169-2.201-1.297-2.653-2.313-.282-.676-1.41-.451-1.918-.225-.734.282-2.652 1.241-3.273.113-.508-.959-3.16-.113-2.709.733 1.298 2.538 5.135 1.184 7.11.395-.62-.057-1.297-.17-1.918-.226.846 2.2 2.596 3.44 5.022 3.158 1.354-.225 2.257-1.861.339-1.635z"/><path fill="#FFC061" d="M480.385 301.98s10.214-7.726 20.315 2.538c4.57 4.625 5.36 11.732 4.232 17.879-1.185 6.543-5.53 11.619-11.737 14.157-2.54 1.071-5.361.902-8.013 1.579-2.201.564-5.248.846-7.054 2.256-1.636 1.297-3.273 2.538-4.966 3.835-1.185.902-2.37 1.805-3.047 3.102-.733 1.297-.846 2.989.057 4.117 2.144 2.651-.96 4.005-3.668 3.61-1.354-.169-2.539-1.015-3.442-1.974-1.862-2.031-2.822-4.851-2.483-7.614.677-5.302 5.248-7.332 9.423-9.588 3.612-1.974 7.449-3.948 11.568-4.681 4.571-.79 9.48-1.128 12.753-4.851 3.16-3.553 3.837-8.516 2.765-13.028-1.241-5.189-4.458-9.193-10.044-9.137-.847.056-9.142-.056-6.659-2.2z"/><path fill="#6A79A8" d="M481.401 302.037c3.216-2.369 7.561-2.82 11.285-1.523 7.054 2.425 11.06 9.25 11.342 16.469.226 6.599-2.087 13.141-7.561 17.145-5.699 4.174-13.543 2.256-19.355 6.148-2.483 1.636-5.869 3.948-7.731 6.373-.564.733-.959 1.467-1.128 2.425a4.625 4.625 0 00.169 2.144c.282.451.508.902.846 1.297.678 1.241-.112 1.861-2.426 1.861-3.329-.62-5.079-5.527-4.966-8.404.113-3.496 2.37-5.978 5.248-7.783 2.991-1.861 6.207-3.553 9.424-4.907 3.498-1.466 7.166-1.692 10.834-2.594 5.586-1.354 10.101-4.794 11.229-10.66 1.016-5.414-.733-12.746-6.094-15.397-1.975-.959-3.95-.959-6.038-1.071-.903-.057-6.207-.282-4.853-1.692.621-.621-1.975-.339-2.483.169-2.595 2.651 5.7 2.707 6.885 2.763 8.069.339 11.511 9.419 9.762 16.469-1.354 5.415-5.474 7.896-10.665 8.855-3.668.62-7.11 1.354-10.552 2.876-3.217 1.467-6.49 3.159-9.48 5.02-2.483 1.579-4.74 3.553-5.53 6.486-1.58 5.978 3.16 12.69 9.649 10.885 2.483-.677 3.611-1.917 2.426-4.286-2.257-4.456 4.007-8.178 7.223-10.321 4.007-2.651 9.142-2.087 13.6-3.384 2.877-.846 5.642-2.482 7.9-4.512 5.304-4.738 7.222-12.183 6.263-19.12-1.806-12.634-16.703-19.627-27.198-11.9-1.242.846 1.467.564 1.975.169z"/><path fill="#FFC061" d="M464.473 313.937c-12.809.733-26.747-.733-32.334-13.085-9.028-20.022 34.365-18.217 42.66-16.017 5.192 1.41 10.44 3.553 13.882 7.727 3.442 4.117 4.514 10.603 1.185 14.889-2.822 3.666-7.9 4.738-12.527 5.245-3.838.452-8.239.959-12.866 1.241z"/><path fill="#6A79A8" d="M465.037 313.204c-11.117.62-24.829-.282-30.81-11.28-1.524-2.764-2.652-6.204-1.354-9.25 1.128-2.707 3.78-4.342 6.376-5.414 6.771-2.82 14.728-3.102 21.951-2.989 7.279.113 14.502.789 20.991 4.455 6.151 3.497 11.624 12.014 6.546 18.669-2.596 3.384-7.167 4.061-11.06 4.568-4.289.508-8.577 1.015-12.866 1.241-1.298.056-2.257 1.579-.395 1.466 4.289-.282 8.577-.733 12.866-1.24 3.273-.395 6.546-.959 9.536-2.426 6.038-2.989 8.07-9.644 5.305-15.679-4.289-9.306-16.026-11.731-25.28-12.295-8.521-.508-17.663-.282-25.845 2.256-6.263 1.974-12.922 6.204-10.89 13.705 4.006 14.664 21.386 16.413 33.97 15.736.846-.113 2.765-1.636.959-1.523z"/><path fill="#FFC061" d="M433.661 312.866c-.621.394-1.072 1.353-.79 2.03.339.79 1.129 1.128 1.862 1.241.79.113 1.58-.057 2.257-.395.565-.282 1.411-.79 1.411-1.523 0-.338-.226-.677-.508-.902-.282-.226-.62-.339-.959-.451-.846-.226-2.201-.452-3.047-.113-.113.056-.169.113-.226.113z"/><path fill="#6A79A8" d="M432.984 312.753c-1.297.959-1.354 2.707.113 3.497 1.467.789 3.442.394 4.853-.452 1.242-.789 1.806-2.199.282-3.045-1.354-.733-3.498-.903-4.909-.226-1.016.508-.056 1.072.621.677 1.185-.564 5.022.677 2.99 2.087-.79.564-1.975.62-2.765 0-.79-.677-.677-1.692.113-2.256.339-.226.113-.451-.169-.564-.339-.169-.846.056-1.129.282z"/><path fill="#FFC061" d="M444.383 315.122c.056 1.015 1.467 2.03 2.37 2.143 1.129.113 2.257-.621 2.652-1.692.169-.508.847-1.861.282-2.256a1.497 1.497 0 00-.677-.169c-1.128 0-2.257.169-3.273.507-.338.113-.733.282-.959.564-.339.339-.451.621-.395.903z"/><path fill="#6A79A8" d="M443.537 315.347c.226 1.579 2.031 2.595 3.555 2.482 1.749-.113 2.878-1.41 3.442-2.989.169-.564.451-1.354 0-1.862-.508-.564-1.524-.507-2.201-.451-1.636.113-4.57.564-4.74 2.595-.056.846 1.58.62 1.637-.113.113-1.072 2.144-1.241 2.99-1.297.508 0 .79-.17.903.338.057.282-.225.846-.338 1.128-.282.79-.903 1.579-1.862 1.41-.79-.169-1.58-.902-1.693-1.692-.17-.733-1.806-.338-1.693.451z"/><path fill="#FFC061" d="M458.942 301.078c.056.395.056.79.056 1.184-.395 7.953-9.875 11.675-16.703 11.675-9.254 0-16.759-5.753-16.759-12.915 0-2.877 1.467-5.753 2.257-8.573.113-.339.17-.621.395-.903.677-.902 1.58-.62 2.596-.733 1.298-.169 1.749-.338 2.991-.902a21.44 21.44 0 018.464-1.749c2.596 0 5.248.452 7.561 1.41 1.073.452 2.088 1.241 3.16 1.58 1.242.394 2.765.225 4.176.225.959 1.636.226 3.046.508 4.625.339 1.805 1.072 3.384 1.298 5.076z"/><path fill="#6A79A8" d="M457.588 301.473c.508 6.937-6.433 11.054-12.527 11.787-6.433.734-14.277-1.917-17.211-8.065-1.58-3.384-.846-6.655.282-10.039.282-.79.452-2.143.959-2.82.565-.79-.112-.451 1.073-.79 1.072-.338 2.2-.394 3.272-.789 4.684-1.749 9.029-2.538 13.938-1.015 1.75.507 3.16 1.692 4.91 2.143 1.41.338 2.877.225 4.288.169-.282-.113-.508-.169-.79-.282.677 1.579.339 2.989.508 4.625.226 1.692 1.016 3.327 1.298 5.076.113.677 2.878.056 2.708-.733-.282-1.749-1.015-3.328-1.241-5.076-.226-1.636.169-3.046-.508-4.625-.113-.282-.564-.282-.79-.282-2.313.056-3.893-.395-5.981-1.41-1.806-.846-3.725-1.354-5.7-1.636-3.385-.451-6.94-.169-10.213.846-2.088.621-3.837 1.297-5.982 1.692-.846.169-1.636.282-2.37.79-1.015.733-1.185 1.861-1.58 3.045-.677 2.031-1.58 4.118-1.749 6.261-.564 5.865 3.894 10.434 8.972 12.577 5.248 2.2 11.23 2.03 16.534.226 5.53-1.862 11.116-6.035 10.608-12.465-.056-.564-2.765-.056-2.708.79z"/><path fill="#fff" d="M457.362 290.7c.508-.225 1.072-.394 1.411 0 .282.339.282.959.226 1.58-.057.733-.113 1.522-.339 2.312-.226.79-.621 1.579-1.185 2.087-.056 0-1.128-.451-1.241-.508a2.955 2.955 0 01-.96-.902c-.564-.733-.902-1.636-.846-2.538.056-1.072 2.088-1.692 2.934-2.031zM426.778 291.039c0-.564 0-1.128.452-1.297.395-.17 1.015.112 1.58.338.677.282 1.411.62 2.031 1.072.339.225 1.072.733 1.185 1.184.113.508-.395 1.297-.677 1.636-.903 1.015-2.483 1.128-3.724.564-.847-.452-.79-2.595-.847-3.497zM439.192 305.534c.395.394.79.846.621 1.24-.169.395-.79.621-1.354.846-.734.282-1.411.508-2.257.677-.452.057-1.242.226-1.637 0-.451-.282-.621-1.184-.677-1.635-.056-1.354.959-2.595 2.257-2.99.903-.338 2.37 1.241 3.047 1.862z"/><path fill="#fff" d="M439.813 307.959c-.339-.451-.678-.903-.452-1.354.226-.395.847-.507 1.467-.677.734-.169 1.467-.338 2.314-.338.451 0 1.298-.056 1.636.226.395.338.452 1.24.395 1.692-.113 1.353-1.298 2.425-2.595 2.65-.96.282-2.201-1.466-2.765-2.199z"/><path fill="#6A79A8" d="M428.64 294.592c-.056-.902-.056-1.805-.113-2.764 0-.451-.056-.846-.056-1.297v-.451c.113-.282.056-.282-.057-.113-.451.113-.903.226-1.354.395.564 0 1.411.733 1.919 1.015.733.395 1.41.79 2.144 1.241.903.508 3.329-.733 2.144-1.41l-3.555-2.03c-.959-.564-2.031-.79-3.047-.113-.734.507-.903 1.184-.846 2.03l.169 4.23c-.057 1.015 2.652.451 2.652-.733zM454.767 292.618l4.74-2.03c-.621 0-1.242-.057-1.862-.057.338 1.241.451 2.538.169 3.835-.226 1.072-.903 1.862-1.185 2.82-.226.734 2.483.395 2.708-.394.339-1.128 1.073-2.031 1.298-3.272.226-1.24.113-2.481-.225-3.722-.17-.564-1.58-.169-1.863-.056l-4.74 2.03c-1.805.79-.169 1.354.96.846zM434.114 300.57c.79.452 1.467.846 2.37.959.621.057 1.185.057 1.749-.169.508-.226.395-.169-.338.113.113 0 .225-.057.395-.057a2.5 2.5 0 00.903-.338c.282-.169.846-.564.282-.79-.565-.225-1.411.113-1.919.339.734-.226.847-.282.452-.169-.113 0-.226.056-.339.056-.282.056-.508.169-.79.282l1.693-.338c-.339-.057-.677-.057-1.016-.17-.338-.169-.621-.394-.959-.564-.508-.282-1.242-.112-1.749.113-.113-.113-1.242.451-.734.733zM441.618 302.037c1.524 1.241 3.725 1.015 5.53.564.508-.169 1.298-.621 1.129-1.241-.169-.62-1.129-.677-1.58-.564-1.016.282-2.031.451-2.934-.282-.96-.733-3.329.564-2.145 1.523zM443.481 309.651c-1.355.169-2.201-1.297-2.653-2.313-.282-.676-1.41-.451-1.918-.225-.734.282-2.652 1.241-3.273.113-.508-.959-3.16-.113-2.709.733 1.298 2.538 5.135 1.184 7.11.395-.62-.057-1.297-.17-1.918-.226.846 2.2 2.596 3.44 5.022 3.158 1.354-.225 2.257-1.861.339-1.635z"/></svg>