<svg xmlns="http://www.w3.org/2000/svg" fill="none" viewBox="0 0 60 47"><g clip-path="url(#clip0)"><path fill="#231F20" d="M58.779 45.601v.12h.112a.119.119 0 00.061-.015.053.053 0 00.022-.046.05.05 0 00-.022-.044.108.108 0 00-.061-.015h-.112zm.113-.084c.058 0 .102.013.134.038.032.026.047.061.047.105a.12.12 0 01-.037.093.184.184 0 01-.108.044l.149.17h-.116l-.137-.169h-.045v.169h-.097v-.45h.21zm-.03.605a.388.388 0 00.349-.231.383.383 0 00-.081-.415.38.38 0 00-.268-.109.383.383 0 00-.272.109.365.365 0 00-.08.12.362.362 0 00-.03.148c0 .052.01.101.03.147a.355.355 0 00.203.2c.046.02.096.031.15.031zm0-.863a.494.494 0 01.459.296.46.46 0 01.039.188.46.46 0 01-.039.189.501.501 0 01-.264.258.501.501 0 01-.657-.258.459.459 0 01-.039-.189.474.474 0 01.304-.446.501.501 0 01.197-.038zm-45.93-1.733c0-.857.567-1.562 1.493-1.562.886 0 1.483.675 1.483 1.562 0 .888-.597 1.562-1.483 1.562-.926 0-1.493-.704-1.493-1.562zm3.986 0v-2.439h-1.07v.592c-.34-.439-.856-.715-1.556-.715-1.38 0-2.463 1.073-2.463 2.562 0 1.49 1.083 2.562 2.463 2.562.7 0 1.216-.276 1.555-.715v.592h1.07v-2.439zm36.173 0c0-.857.567-1.562 1.493-1.562.887 0 1.483.675 1.483 1.562 0 .888-.596 1.562-1.483 1.562-.926 0-1.493-.704-1.493-1.562zm3.987 0v-4.398h-1.072v2.551c-.34-.439-.855-.715-1.555-.715-1.38 0-2.463 1.073-2.463 2.562 0 1.49 1.083 2.562 2.463 2.562.7 0 1.215-.276 1.555-.715v.592h1.072v-2.439zm-26.873-1.612c.69 0 1.133.429 1.246 1.184h-2.555c.115-.705.546-1.184 1.309-1.184zm.021-.95c-1.443 0-2.452 1.041-2.452 2.562 0 1.552 1.05 2.562 2.524 2.562.742 0 1.42-.183 2.018-.683l-.524-.787c-.413.326-.939.511-1.433.511-.69 0-1.318-.317-1.472-1.195h3.656c.01-.132.02-.265.02-.408-.01-1.52-.958-2.562-2.337-2.562zm12.925 2.562c0-.857.567-1.562 1.494-1.562.885 0 1.483.675 1.483 1.562 0 .888-.598 1.562-1.483 1.562-.927 0-1.494-.704-1.494-1.562zm3.986 0v-2.439h-1.07v.592c-.34-.439-.855-.715-1.555-.715-1.38 0-2.463 1.073-2.463 2.562 0 1.49 1.082 2.562 2.463 2.562.7 0 1.214-.276 1.555-.715v.592h1.07v-2.439zm-10.031 0c0 1.48 1.04 2.562 2.627 2.562.741 0 1.235-.163 1.77-.582l-.514-.857c-.402.286-.824.44-1.288.44-.855-.011-1.483-.623-1.483-1.563 0-.939.628-1.551 1.483-1.562.464 0 .886.154 1.288.44l.514-.858c-.535-.418-1.029-.581-1.77-.581-1.587 0-2.627 1.081-2.627 2.561zm13.801-2.562c-.617 0-1.02.287-1.298.715v-.592h-1.06v4.878h1.07v-2.734c0-.808.351-1.256 1.051-1.256.217 0 .444.03.67.123l.33-1a2.298 2.298 0 00-.763-.133zm-28.695.511c-.515-.337-1.225-.51-2.008-.51-1.247 0-2.05.592-2.05 1.561 0 .796.598 1.286 1.699 1.44l.506.07c.587.082.864.236.864.511 0 .378-.392.593-1.122.593-.742 0-1.277-.235-1.638-.511l-.505.826c.588.429 1.33.633 2.132.633 1.422 0 2.246-.663 2.246-1.592 0-.858-.649-1.306-1.72-1.46l-.505-.072c-.463-.06-.835-.151-.835-.479 0-.357.35-.57.938-.57.628 0 1.236.234 1.535.417l.463-.857zm13.812-.51c-.618 0-1.02.286-1.297.714v-.592h-1.061v4.878h1.07v-2.734c0-.808.35-1.256 1.05-1.256.218 0 .444.03.67.123l.33-1a2.298 2.298 0 00-.762-.133zm-9.135.122h-1.751v-1.48h-1.082v1.48h-.999v.97h.999v2.225c0 1.132.443 1.806 1.71 1.806.464 0 .999-.142 1.338-.377l-.308-.91c-.32.184-.67.277-.948.277-.536 0-.71-.328-.71-.817v-2.204h1.75v-.97zm-16.006 4.878v-3.061c0-1.153-.742-1.929-1.937-1.94-.628-.01-1.277.184-1.73.868-.34-.54-.875-.867-1.628-.867-.525 0-1.04.152-1.441.724v-.602H3.075v4.878h1.081v-2.704c0-.847.474-1.297 1.206-1.297.711 0 1.07.46 1.07 1.287v2.714h1.083v-2.704c0-.847.494-1.297 1.205-1.297.73 0 1.08.46 1.08 1.287v2.714h1.083z"/><path fill="#F79410" d="M59.439 29.742v-.713h-.188l-.217.49-.215-.49h-.189v.713h.133v-.537l.203.463h.138l.203-.465v.539h.132zm-1.19 0v-.591h.24v-.12h-.612v.12h.24v.59h.132z"/><path fill="#FF5F00" d="M38.125 32.807H21.9V3.916h16.224v28.891z"/><path fill="#EB001B" d="M22.94 18.36c0-5.862 2.77-11.082 7.082-14.447A18.569 18.569 0 0018.563-.015C8.323-.015.023 8.21.023 18.359c0 10.148 8.3 18.374 18.54 18.374 4.326 0 8.306-1.468 11.459-3.928-4.312-3.364-7.082-8.585-7.082-14.446z"/><path fill="#F79E1B" d="M60.005 18.36c0 10.147-8.3 18.373-18.54 18.373a18.574 18.574 0 01-11.46-3.928c4.313-3.364 7.082-8.585 7.082-14.446 0-5.86-2.77-11.081-7.083-14.446a18.574 18.574 0 0111.46-3.928c10.24 0 18.54 8.226 18.54 18.374z"/></g><defs><clipPath id="clip0"><path fill="#fff" d="M0 0h60v46.25H0z"/></clipPath></defs></svg>