<svg xmlns="http://www.w3.org/2000/svg" fill="none" viewBox="0 0 60 17"><g clip-path="url(#clip0)"><path fill="#319B42" d="M33.405 1.787L29.616 10h-.386V0h-5.393v16.924h4.57a3.081 3.081 0 002.794-1.789l3.791-8.211h.384v10h5.385V0H36.2a3.078 3.078 0 00-2.795 1.787zM13.205 2.225L10.963 10h-.386L8.334 2.225A3.076 3.076 0 005.383 0H0v16.924h5.385V6.935h.383l3.086 9.989h3.838l3.076-9.989h.386v9.989h5.385V0h-5.378a3.076 3.076 0 00-2.956 2.225zM43.078 7.691v9.233h5.374V11.54h5.78a5.769 5.769 0 005.434-3.848H43.078z"/><path fill="url(#paint0_linear)" d="M54.232 0H42.309a8.461 8.461 0 008.315 6.924h9.258A5.773 5.773 0 0054.232 0z"/></g><defs><linearGradient id="paint0_linear" x1="42.309" x2="60" y1="3.462" y2="3.462" gradientUnits="userSpaceOnUse"><stop stop-color="#00A3E1"/><stop offset=".3" stop-color="#009ADD"/><stop offset=".8" stop-color="#0082D4"/><stop offset="1" stop-color="#0076CF"/></linearGradient><clipPath id="clip0"><path fill="#fff" d="M0 0h60v16.924H0z"/></clipPath></defs></svg>