<svg xmlns="http://www.w3.org/2000/svg" fill="none" viewBox="0 0 60 20"><g clip-path="url(#clip0)"><path fill="#00579F" d="M26 18.816h-4.86L24.18.334h4.86L26 18.815zM43.62.787C42.66.413 41.14 0 39.26 0c-4.8 0-8.18 2.516-8.2 6.114-.04 2.654 2.42 4.129 4.26 5.014 1.88.904 2.519 1.494 2.519 2.3-.02 1.238-1.52 1.81-2.92 1.81-1.94 0-2.98-.295-4.56-.984l-.64-.295-.68 4.148c1.14.511 3.24.964 5.421.984 5.1 0 8.42-2.478 8.46-6.311.019-2.104-1.28-3.716-4.08-5.033-1.7-.846-2.741-1.416-2.741-2.281.02-.787.88-1.592 2.8-1.592 1.58-.04 2.74.334 3.62.707l.44.196.66-3.99zM50.08 12.268c.4-1.061 1.94-5.17 1.94-5.17-.02.04.4-1.082.64-1.77l.339 1.593s.92 4.423 1.12 5.347h-4.04zM56.078.335h-3.76c-1.159 0-2.04.334-2.54 1.533l-7.22 16.947h5.1l1.02-2.772h6.24c.14.649.58 2.772.58 2.772H60L56.079.335zM17.08.335l-4.76 12.602-.52-2.556c-.88-2.949-3.64-6.153-6.72-7.746l4.36 16.16h5.14L22.22.336h-5.14z"/><path fill="#FAA61A" d="M7.9.335H.08L0 .708c6.1 1.534 10.14 5.23 11.8 9.674l-1.7-8.494C9.82.708 8.96.374 7.9.335z"/></g><defs><clipPath id="clip0"><path fill="#fff" d="M0 0h60v19.091H0z"/></clipPath></defs></svg>